<mxfile host="app.diagrams.net" modified="2021-04-09T00:46:37.163Z" agent="5.0 (X11)" etag="fDhPANZJHuanl5sXnCnT" version="14.5.8" type="github">
  <diagram id="_pvKrL6WHwG1rI27nFIT" name="Page-1">
    <mxGraphModel dx="868" dy="449" grid="1" gridSize="10" guides="1" tooltips="1" connect="1" arrows="1" fold="1" page="1" pageScale="1" pageWidth="850" pageHeight="1100" math="0" shadow="0">
      <root>
        <mxCell id="0" />
        <mxCell id="1" parent="0" />
        <mxCell id="qLSg9q5msjI1tWfXmDc6-10" style="edgeStyle=orthogonalEdgeStyle;rounded=0;orthogonalLoop=1;jettySize=auto;html=1;" parent="1" source="qLSg9q5msjI1tWfXmDc6-3" target="qLSg9q5msjI1tWfXmDc6-4" edge="1">
          <mxGeometry relative="1" as="geometry" />
        </mxCell>
        <mxCell id="qLSg9q5msjI1tWfXmDc6-3" value="" style="image;html=1;image=img/lib/clip_art/networking/Router_Icon_128x128.png" parent="1" vertex="1">
          <mxGeometry x="290" y="250" width="80" height="80" as="geometry" />
        </mxCell>
        <mxCell id="qLSg9q5msjI1tWfXmDc6-12" style="edgeStyle=orthogonalEdgeStyle;rounded=0;orthogonalLoop=1;jettySize=auto;html=1;entryX=0.07;entryY=0.4;entryDx=0;entryDy=0;entryPerimeter=0;" parent="1" source="qLSg9q5msjI1tWfXmDc6-4" target="qLSg9q5msjI1tWfXmDc6-11" edge="1">
          <mxGeometry relative="1" as="geometry" />
        </mxCell>
        <mxCell id="qLSg9q5msjI1tWfXmDc6-4" value="" style="image;html=1;image=img/lib/clip_art/networking/Router_Icon_128x128.png" parent="1" vertex="1">
          <mxGeometry x="290" y="120" width="80" height="80" as="geometry" />
        </mxCell>
        <mxCell id="qLSg9q5msjI1tWfXmDc6-14" style="edgeStyle=orthogonalEdgeStyle;rounded=0;orthogonalLoop=1;jettySize=auto;html=1;" parent="1" source="qLSg9q5msjI1tWfXmDc6-5" target="qLSg9q5msjI1tWfXmDc6-6" edge="1">
          <mxGeometry relative="1" as="geometry" />
        </mxCell>
        <mxCell id="qLSg9q5msjI1tWfXmDc6-5" value="" style="image;html=1;image=img/lib/clip_art/networking/Router_Icon_128x128.png" parent="1" vertex="1">
          <mxGeometry x="660" y="110" width="80" height="80" as="geometry" />
        </mxCell>
        <mxCell id="qLSg9q5msjI1tWfXmDc6-6" value="" style="image;html=1;image=img/lib/clip_art/networking/Router_Icon_128x128.png" parent="1" vertex="1">
          <mxGeometry x="660" y="240" width="80" height="80" as="geometry" />
        </mxCell>
        <mxCell id="qLSg9q5msjI1tWfXmDc6-8" value="" style="edgeStyle=orthogonalEdgeStyle;rounded=0;orthogonalLoop=1;jettySize=auto;html=1;" parent="1" source="qLSg9q5msjI1tWfXmDc6-7" target="qLSg9q5msjI1tWfXmDc6-3" edge="1">
          <mxGeometry relative="1" as="geometry" />
        </mxCell>
        <mxCell id="qLSg9q5msjI1tWfXmDc6-9" style="edgeStyle=orthogonalEdgeStyle;rounded=0;orthogonalLoop=1;jettySize=auto;html=1;" parent="1" source="qLSg9q5msjI1tWfXmDc6-7" target="qLSg9q5msjI1tWfXmDc6-3" edge="1">
          <mxGeometry relative="1" as="geometry" />
        </mxCell>
        <mxCell id="qLSg9q5msjI1tWfXmDc6-7" value="" style="points=[];aspect=fixed;html=1;align=center;shadow=0;dashed=0;image;image=img/lib/allied_telesis/switch/Modular_Switch_SBx8106.svg;" parent="1" vertex="1">
          <mxGeometry x="287.1" y="360" width="85.8" height="73.8" as="geometry" />
        </mxCell>
        <mxCell id="qLSg9q5msjI1tWfXmDc6-13" style="edgeStyle=orthogonalEdgeStyle;rounded=0;orthogonalLoop=1;jettySize=auto;html=1;entryX=0;entryY=0.5;entryDx=0;entryDy=0;" parent="1" source="qLSg9q5msjI1tWfXmDc6-11" target="qLSg9q5msjI1tWfXmDc6-5" edge="1">
          <mxGeometry relative="1" as="geometry" />
        </mxCell>
        <mxCell id="qLSg9q5msjI1tWfXmDc6-11" value="" style="ellipse;shape=cloud;whiteSpace=wrap;html=1;fillColor=#dae8fc;strokeColor=#6c8ebf;" parent="1" vertex="1">
          <mxGeometry x="440" y="40" width="120" height="80" as="geometry" />
        </mxCell>
        <mxCell id="qLSg9q5msjI1tWfXmDc6-17" value="DIST" style="text;html=1;strokeColor=none;fillColor=none;align=center;verticalAlign=middle;whiteSpace=wrap;rounded=0;" parent="1" vertex="1">
          <mxGeometry x="220" y="140" width="40" height="20" as="geometry" />
        </mxCell>
        <mxCell id="qLSg9q5msjI1tWfXmDc6-18" value="&lt;div&gt;AGR&lt;/div&gt;&lt;div&gt;&lt;span style=&quot;color: rgb(0 , 0 , 0) ; font-family: &amp;#34;arial&amp;#34; , sans-serif ; font-size: 12px ; font-style: normal ; font-weight: normal ; letter-spacing: normal ; text-align: center ; text-indent: 0px ; text-transform: none ; word-spacing: 0px ; text-decoration: none ; display: inline ; float: none&quot;&gt;VRCZVRMOO1I-AGR9-7450&lt;/span&gt;&lt;/div&gt;" style="text;html=1;strokeColor=none;fillColor=none;align=center;verticalAlign=middle;whiteSpace=wrap;rounded=0;" parent="1" vertex="1">
          <mxGeometry x="220" y="280" width="40" height="20" as="geometry" />
        </mxCell>
        <mxCell id="qLSg9q5msjI1tWfXmDc6-20" value="&lt;div&gt;CLUSTER&lt;/div&gt;&lt;div&gt;&lt;span style=&quot;font-family: &amp;#34;calibri&amp;#34; , sans-serif ; font-size: 14.6667px ; font-style: normal ; font-weight: normal ; letter-spacing: normal ; text-indent: 0px ; text-transform: none ; word-spacing: 0px ; text-decoration: none ; color: rgb(31 , 73 , 125)&quot;&gt;CE_LERMOA_&lt;/span&gt;&lt;b style=&quot;color: rgb(0 , 0 , 0) ; font-family: &amp;#34;calibri&amp;#34; , sans-serif ; font-size: 14.6667px ; font-style: normal ; letter-spacing: normal ; text-indent: 0px ; text-transform: none ; word-spacing: 0px ; text-decoration: none&quot;&gt;&lt;span style=&quot;color: red&quot;&gt;002&lt;/span&gt;&lt;/b&gt;&lt;span style=&quot;font-family: &amp;#34;calibri&amp;#34; , sans-serif ; font-size: 14.6667px ; font-style: normal ; font-weight: normal ; letter-spacing: normal ; text-indent: 0px ; text-transform: none ; word-spacing: 0px ; text-decoration: none ; color: rgb(31 , 73 , 125)&quot;&gt;CSUR&lt;/span&gt;&lt;/div&gt;" style="text;html=1;strokeColor=none;fillColor=none;align=center;verticalAlign=middle;whiteSpace=wrap;rounded=0;rotation=-90;" parent="1" vertex="1">
          <mxGeometry x="37.099999999999994" y="210" width="260" height="50" as="geometry" />
        </mxCell>
        <mxCell id="qLSg9q5msjI1tWfXmDc6-22" value="" style="html=1;rounded=0;" parent="1" vertex="1">
          <mxGeometry x="693" y="290" width="15" height="15" as="geometry" />
        </mxCell>
        <mxCell id="qLSg9q5msjI1tWfXmDc6-23" value="" style="endArrow=none;html=1;rounded=0;align=center;verticalAlign=top;endFill=0;labelBackgroundColor=none;endSize=2;" parent="1" source="qLSg9q5msjI1tWfXmDc6-22" target="qLSg9q5msjI1tWfXmDc6-24" edge="1">
          <mxGeometry relative="1" as="geometry" />
        </mxCell>
        <mxCell id="qLSg9q5msjI1tWfXmDc6-24" value="" style="ellipse;html=1;fontSize=11;align=center;fillColor=none;points=[];aspect=fixed;resizable=0;verticalAlign=bottom;labelPosition=center;verticalLabelPosition=top;flipH=1;" parent="1" vertex="1">
          <mxGeometry x="696" y="312" width="8" height="8" as="geometry" />
        </mxCell>
        <mxCell id="qLSg9q5msjI1tWfXmDc6-25" value="PCAI" style="text;html=1;strokeColor=none;fillColor=none;align=center;verticalAlign=middle;whiteSpace=wrap;rounded=0;" parent="1" vertex="1">
          <mxGeometry x="715" y="304" width="40" height="20" as="geometry" />
        </mxCell>
        <mxCell id="qLSg9q5msjI1tWfXmDc6-26" style="edgeStyle=orthogonalEdgeStyle;rounded=0;orthogonalLoop=1;jettySize=auto;html=1;" parent="1" source="qLSg9q5msjI1tWfXmDc6-27" target="qLSg9q5msjI1tWfXmDc6-29" edge="1">
          <mxGeometry relative="1" as="geometry" />
        </mxCell>
        <mxCell id="qLSg9q5msjI1tWfXmDc6-27" value="" style="image;html=1;image=img/lib/clip_art/networking/Router_Icon_128x128.png" parent="1" vertex="1">
          <mxGeometry x="300" y="750" width="80" height="80" as="geometry" />
        </mxCell>
        <mxCell id="qLSg9q5msjI1tWfXmDc6-28" style="edgeStyle=orthogonalEdgeStyle;rounded=0;orthogonalLoop=1;jettySize=auto;html=1;entryX=0.07;entryY=0.4;entryDx=0;entryDy=0;entryPerimeter=0;" parent="1" source="qLSg9q5msjI1tWfXmDc6-29" target="qLSg9q5msjI1tWfXmDc6-37" edge="1">
          <mxGeometry relative="1" as="geometry" />
        </mxCell>
        <mxCell id="qLSg9q5msjI1tWfXmDc6-29" value="" style="image;html=1;image=img/lib/clip_art/networking/Router_Icon_128x128.png" parent="1" vertex="1">
          <mxGeometry x="300" y="620" width="80" height="80" as="geometry" />
        </mxCell>
        <mxCell id="qLSg9q5msjI1tWfXmDc6-30" style="edgeStyle=orthogonalEdgeStyle;rounded=0;orthogonalLoop=1;jettySize=auto;html=1;" parent="1" source="qLSg9q5msjI1tWfXmDc6-31" target="qLSg9q5msjI1tWfXmDc6-32" edge="1">
          <mxGeometry relative="1" as="geometry" />
        </mxCell>
        <mxCell id="qLSg9q5msjI1tWfXmDc6-31" value="" style="image;html=1;image=img/lib/clip_art/networking/Router_Icon_128x128.png" parent="1" vertex="1">
          <mxGeometry x="670" y="610" width="80" height="80" as="geometry" />
        </mxCell>
        <mxCell id="qLSg9q5msjI1tWfXmDc6-32" value="" style="image;html=1;image=img/lib/clip_art/networking/Router_Icon_128x128.png" parent="1" vertex="1">
          <mxGeometry x="670" y="740" width="80" height="80" as="geometry" />
        </mxCell>
        <mxCell id="qLSg9q5msjI1tWfXmDc6-33" value="" style="edgeStyle=orthogonalEdgeStyle;rounded=0;orthogonalLoop=1;jettySize=auto;html=1;" parent="1" source="qLSg9q5msjI1tWfXmDc6-35" target="qLSg9q5msjI1tWfXmDc6-27" edge="1">
          <mxGeometry relative="1" as="geometry" />
        </mxCell>
        <mxCell id="qLSg9q5msjI1tWfXmDc6-34" style="edgeStyle=orthogonalEdgeStyle;rounded=0;orthogonalLoop=1;jettySize=auto;html=1;" parent="1" source="qLSg9q5msjI1tWfXmDc6-35" target="qLSg9q5msjI1tWfXmDc6-27" edge="1">
          <mxGeometry relative="1" as="geometry" />
        </mxCell>
        <mxCell id="qLSg9q5msjI1tWfXmDc6-35" value="" style="points=[];aspect=fixed;html=1;align=center;shadow=0;dashed=0;image;image=img/lib/allied_telesis/switch/Modular_Switch_SBx8106.svg;" parent="1" vertex="1">
          <mxGeometry x="297.1" y="860" width="85.8" height="73.8" as="geometry" />
        </mxCell>
        <mxCell id="qLSg9q5msjI1tWfXmDc6-36" style="edgeStyle=orthogonalEdgeStyle;rounded=0;orthogonalLoop=1;jettySize=auto;html=1;entryX=0;entryY=0.5;entryDx=0;entryDy=0;" parent="1" source="qLSg9q5msjI1tWfXmDc6-37" target="qLSg9q5msjI1tWfXmDc6-31" edge="1">
          <mxGeometry relative="1" as="geometry" />
        </mxCell>
        <mxCell id="qLSg9q5msjI1tWfXmDc6-37" value="" style="ellipse;shape=cloud;whiteSpace=wrap;html=1;fillColor=#dae8fc;strokeColor=#6c8ebf;" parent="1" vertex="1">
          <mxGeometry x="450" y="540" width="120" height="80" as="geometry" />
        </mxCell>
        <mxCell id="qLSg9q5msjI1tWfXmDc6-38" value="DIST" style="text;html=1;strokeColor=none;fillColor=none;align=center;verticalAlign=middle;whiteSpace=wrap;rounded=0;" parent="1" vertex="1">
          <mxGeometry x="230" y="640" width="40" height="20" as="geometry" />
        </mxCell>
        <mxCell id="qLSg9q5msjI1tWfXmDc6-39" value="&lt;div&gt;AGR&lt;/div&gt;&lt;div&gt;&lt;span style=&quot;font-family: monospace&quot;&gt;&lt;span style=&quot;font-weight: bold ; color: #5454ff ; background-color: #ffffff&quot;&gt;VRCZVRMOO0F-AGR4-7450? &lt;br&gt;&lt;/span&gt;&lt;/span&gt;&lt;/div&gt;&lt;div&gt;&lt;span style=&quot;font-family: monospace&quot;&gt;&lt;span style=&quot;font-weight: bold ; color: #5454ff ; background-color: #ffffff&quot;&gt;&lt;span style=&quot;font-family: monospace&quot;&gt;&lt;span style=&quot;font-weight: bold ; color: #5454ff ; background-color: #ffffff&quot;&gt;VRCZVRLE1EW-AGR9-7450?&lt;/span&gt;&lt;br&gt;&lt;/span&gt;&lt;/span&gt;&lt;/span&gt;&lt;/div&gt;" style="text;html=1;strokeColor=none;fillColor=none;align=center;verticalAlign=middle;whiteSpace=wrap;rounded=0;" parent="1" vertex="1">
          <mxGeometry x="230" y="780" width="40" height="20" as="geometry" />
        </mxCell>
        <mxCell id="qLSg9q5msjI1tWfXmDc6-40" value="&lt;div&gt;GPON&lt;span style=&quot;color: rgb(0 , 0 , 0) ; font-family: &amp;#34;arial&amp;#34; , sans-serif ; font-size: 12px ; font-style: normal ; font-weight: normal ; letter-spacing: normal ; text-align: center ; text-indent: 0px ; text-transform: none ; word-spacing: 0px ; text-decoration: none ; display: inline ; float: none&quot;&gt;&lt;br&gt;&lt;/span&gt;&lt;/div&gt;&lt;div&gt;&lt;span style=&quot;color: rgb(0 , 0 , 0) ; font-family: &amp;#34;arial&amp;#34; , sans-serif ; font-size: 12px ; font-style: normal ; font-weight: normal ; letter-spacing: normal ; text-align: center ; text-indent: 0px ; text-transform: none ; word-spacing: 0px ; text-decoration: none ; display: inline ; float: none&quot;&gt;VERGLERDODETEJADA-01&lt;/span&gt;&lt;/div&gt;" style="text;html=1;strokeColor=none;fillColor=none;align=center;verticalAlign=middle;whiteSpace=wrap;rounded=0;" parent="1" vertex="1">
          <mxGeometry x="140" y="880" width="140" height="20" as="geometry" />
        </mxCell>
        <mxCell id="qLSg9q5msjI1tWfXmDc6-42" value="&lt;div&gt;PC &lt;span style=&quot;color: rgb(0 , 0 , 0) ; font-family: &amp;#34;arial&amp;#34; , sans-serif ; font-size: 12px ; font-style: normal ; font-weight: normal ; letter-spacing: normal ; text-align: center ; text-indent: 0px ; text-transform: none ; word-spacing: 0px ; text-decoration: none ; display: inline ; float: none&quot;&gt;&lt;br&gt;&lt;/span&gt;&lt;/div&gt;&lt;div&gt;&lt;span style=&quot;color: rgb(0 , 0 , 0) ; font-family: &amp;#34;arial&amp;#34; , sans-serif ; font-size: 12px ; font-style: normal ; font-weight: normal ; letter-spacing: normal ; text-align: center ; text-indent: 0px ; text-transform: none ; word-spacing: 0px ; text-decoration: none ; display: inline ; float: none&quot;&gt;PUBLPBFUO2E-AGR9-7450&lt;/span&gt;&lt;/div&gt;" style="text;html=1;strokeColor=none;fillColor=none;align=center;verticalAlign=middle;whiteSpace=wrap;rounded=0;" parent="1" vertex="1">
          <mxGeometry x="598" y="770" width="40" height="20" as="geometry" />
        </mxCell>
        <mxCell id="qLSg9q5msjI1tWfXmDc6-43" value="" style="html=1;rounded=0;" parent="1" vertex="1">
          <mxGeometry x="703" y="790" width="15" height="15" as="geometry" />
        </mxCell>
        <mxCell id="qLSg9q5msjI1tWfXmDc6-44" value="" style="endArrow=none;html=1;rounded=0;align=center;verticalAlign=top;endFill=0;labelBackgroundColor=none;endSize=2;" parent="1" source="qLSg9q5msjI1tWfXmDc6-43" target="qLSg9q5msjI1tWfXmDc6-45" edge="1">
          <mxGeometry relative="1" as="geometry" />
        </mxCell>
        <mxCell id="qLSg9q5msjI1tWfXmDc6-45" value="" style="ellipse;html=1;fontSize=11;align=center;fillColor=none;points=[];aspect=fixed;resizable=0;verticalAlign=bottom;labelPosition=center;verticalLabelPosition=top;flipH=1;" parent="1" vertex="1">
          <mxGeometry x="706" y="812" width="8" height="8" as="geometry" />
        </mxCell>
        <mxCell id="qLSg9q5msjI1tWfXmDc6-46" value="PCAI" style="text;html=1;strokeColor=none;fillColor=none;align=center;verticalAlign=middle;whiteSpace=wrap;rounded=0;" parent="1" vertex="1">
          <mxGeometry x="725" y="804" width="40" height="20" as="geometry" />
        </mxCell>
        <mxCell id="qLSg9q5msjI1tWfXmDc6-50" value="&lt;div&gt;CLUSTER&lt;/div&gt;&lt;div&gt;&lt;span style=&quot;font-family: &amp;#34;calibri&amp;#34; , sans-serif ; font-size: 14.6667px ; font-style: normal ; font-weight: normal ; letter-spacing: normal ; text-indent: 0px ; text-transform: none ; word-spacing: 0px ; text-decoration: none ; color: rgb(31 , 73 , 125)&quot;&gt;CE_LERMOA_&lt;/span&gt;&lt;b style=&quot;color: rgb(0 , 0 , 0) ; font-family: &amp;#34;calibri&amp;#34; , sans-serif ; font-size: 14.6667px ; font-style: normal ; letter-spacing: normal ; text-indent: 0px ; text-transform: none ; word-spacing: 0px ; text-decoration: none&quot;&gt;&lt;span style=&quot;color: red&quot;&gt;001&lt;/span&gt;&lt;span style=&quot;color: red&quot;&gt;&lt;/span&gt;&lt;/b&gt;&lt;span style=&quot;font-family: &amp;#34;calibri&amp;#34; , sans-serif ; font-size: 14.6667px ; font-style: normal ; font-weight: normal ; letter-spacing: normal ; text-indent: 0px ; text-transform: none ; word-spacing: 0px ; text-decoration: none ; color: rgb(31 , 73 , 125)&quot;&gt;CSUR&lt;/span&gt;&lt;/div&gt;" style="text;html=1;strokeColor=none;fillColor=none;align=center;verticalAlign=middle;whiteSpace=wrap;rounded=0;rotation=-90;" parent="1" vertex="1">
          <mxGeometry x="40" y="740" width="260" height="50" as="geometry" />
        </mxCell>
        <mxCell id="qLSg9q5msjI1tWfXmDc6-51" value="&lt;div&gt;GPON&lt;span style=&quot;color: rgb(0 , 0 , 0) ; font-family: &amp;#34;arial&amp;#34; , sans-serif ; font-size: 12px ; font-style: normal ; font-weight: normal ; letter-spacing: normal ; text-align: center ; text-indent: 0px ; text-transform: none ; word-spacing: 0px ; text-decoration: none ; display: inline ; float: none&quot;&gt;&lt;br&gt;&lt;/span&gt;&lt;/div&gt;&lt;div&gt;&lt;span style=&quot;color: rgb(0 , 0 , 0) ; font-family: &amp;#34;arial&amp;#34; , sans-serif ; font-size: 12px ; font-style: normal ; font-weight: normal ; letter-spacing: normal ; text-align: center ; text-indent: 0px ; text-transform: none ; word-spacing: 0px ; text-decoration: none ; display: inline ; float: none&quot;&gt;VERGLERDODETEJADA-01&lt;/span&gt;&lt;/div&gt;" style="text;html=1;strokeColor=none;fillColor=none;align=center;verticalAlign=middle;whiteSpace=wrap;rounded=0;" parent="1" vertex="1">
          <mxGeometry x="130" y="386.90000000000003" width="140" height="20" as="geometry" />
        </mxCell>
        <mxCell id="qLSg9q5msjI1tWfXmDc6-52" value="&lt;div&gt;CLUSTER&lt;/div&gt;&lt;div&gt;&lt;span style=&quot;color: rgb(0 , 0 , 0) ; font-family: &amp;#34;arial&amp;#34; , sans-serif ; font-size: 12px ; font-style: normal ; font-weight: normal ; letter-spacing: normal ; text-align: center ; text-indent: 0px ; text-transform: none ; word-spacing: 0px ; text-decoration: none ; display: inline ; float: none&quot;&gt;CE_FURLPA_001CMET&lt;/span&gt;&lt;/div&gt;" style="text;html=1;strokeColor=none;fillColor=none;align=center;verticalAlign=middle;whiteSpace=wrap;rounded=0;rotation=-90;" parent="1" vertex="1">
          <mxGeometry x="652" y="190" width="260" height="50" as="geometry" />
        </mxCell>
        <mxCell id="qLSg9q5msjI1tWfXmDc6-53" value="&lt;div&gt;CLUSTER&lt;/div&gt;&lt;div&gt;&lt;span style=&quot;color: rgb(0 , 0 , 0) ; font-family: &amp;#34;arial&amp;#34; , sans-serif ; font-size: 12px ; font-style: normal ; font-weight: normal ; letter-spacing: normal ; text-align: center ; text-indent: 0px ; text-transform: none ; word-spacing: 0px ; text-decoration: none ; display: inline ; float: none&quot;&gt;CE_FURLPA_001CMET&lt;/span&gt;&lt;/div&gt;" style="text;html=1;strokeColor=none;fillColor=none;align=center;verticalAlign=middle;whiteSpace=wrap;rounded=0;rotation=-90;" parent="1" vertex="1">
          <mxGeometry x="652" y="690" width="260" height="50" as="geometry" />
        </mxCell>
        <mxCell id="qLSg9q5msjI1tWfXmDc6-54" value="&lt;div&gt;PC &lt;span style=&quot;color: rgb(0 , 0 , 0) ; font-family: &amp;#34;arial&amp;#34; , sans-serif ; font-size: 12px ; font-style: normal ; font-weight: normal ; letter-spacing: normal ; text-align: center ; text-indent: 0px ; text-transform: none ; word-spacing: 0px ; text-decoration: none ; display: inline ; float: none&quot;&gt;&lt;br&gt;&lt;/span&gt;&lt;/div&gt;&lt;div&gt;&lt;span style=&quot;color: rgb(0 , 0 , 0) ; font-family: &amp;#34;arial&amp;#34; , sans-serif ; font-size: 12px ; font-style: normal ; font-weight: normal ; letter-spacing: normal ; text-align: center ; text-indent: 0px ; text-transform: none ; word-spacing: 0px ; text-decoration: none ; display: inline ; float: none&quot;&gt;PUBLPBFUO2E-AGR9-7450&lt;/span&gt;&lt;/div&gt;" style="text;html=1;strokeColor=none;fillColor=none;align=center;verticalAlign=middle;whiteSpace=wrap;rounded=0;" parent="1" vertex="1">
          <mxGeometry x="590" y="260" width="40" height="20" as="geometry" />
        </mxCell>
        <mxCell id="qLSg9q5msjI1tWfXmDc6-55" value="&lt;font style=&quot;font-size: 24px&quot;&gt;Escenario Actual&lt;/font&gt;" style="text;html=1;strokeColor=none;fillColor=none;align=center;verticalAlign=middle;whiteSpace=wrap;rounded=0;" parent="1" vertex="1">
          <mxGeometry x="350" y="10" width="340" height="20" as="geometry" />
        </mxCell>
        <mxCell id="qLSg9q5msjI1tWfXmDc6-56" value="&lt;font style=&quot;font-size: 24px&quot;&gt;Escenario Nuevo&lt;/font&gt;" style="text;html=1;strokeColor=none;fillColor=none;align=center;verticalAlign=middle;whiteSpace=wrap;rounded=0;" parent="1" vertex="1">
          <mxGeometry x="356" y="500" width="340" height="20" as="geometry" />
        </mxCell>
        <mxCell id="qLSg9q5msjI1tWfXmDc6-58" value="Se debe contratar el NCAI completo con todos sus equipos de acceso" style="text;html=1;strokeColor=none;fillColor=none;align=center;verticalAlign=middle;whiteSpace=wrap;rounded=0;" parent="1" vertex="1">
          <mxGeometry x="350" y="260" width="150" height="20" as="geometry" />
        </mxCell>
        <mxCell id="qLSg9q5msjI1tWfXmDc6-59" value="Se debe contratar el NCAI completo con todos sus equipos de acceso" style="text;html=1;strokeColor=none;fillColor=none;align=center;verticalAlign=middle;whiteSpace=wrap;rounded=0;" parent="1" vertex="1">
          <mxGeometry x="356" y="755" width="150" height="20" as="geometry" />
        </mxCell>
      </root>
    </mxGraphModel>
  </diagram>
</mxfile>
